<?xml version="1.0" standalone="no"?>
<!DOCTYPE svg PUBLIC "-//W3C//DTD SVG 20010904//EN"
 "http://www.w3.org/TR/2001/REC-SVG-20010904/DTD/svg10.dtd">
<svg version="1.0" xmlns="http://www.w3.org/2000/svg"
 width="225.000000pt" height="225.000000pt" viewBox="0 0 225.000000 225.000000"
 preserveAspectRatio="xMidYMid meet">
<metadata>
Created by potrace 1.15, written by Peter Selinger 2001-2017
</metadata>
<g transform="translate(0.000000,225.000000) scale(0.100000,-0.100000)"
fill="#000000" stroke="none">
<path d="M1045 2231 c-135 -61 -150 -245 -26 -326 97 -64 224 -27 272 80 24
51 24 99 0 150 -45 98 -151 139 -246 96z"/>
<path d="M1022 1775 c-92 -20 -150 -52 -209 -112 -105 -107 -168 -303 -161
-496 3 -89 6 -100 29 -123 37 -36 96 -43 132 -14 27 21 27 23 27 138 0 114 18
234 40 269 8 13 10 -170 9 -677 -1 -382 -1 -701 0 -708 2 -17 61 -52 89 -52
38 0 88 29 102 58 11 24 26 385 29 715 1 49 5 67 14 67 11 0 15 -71 20 -370 8
-418 10 -430 73 -456 47 -20 93 -12 125 22 19 20 24 36 23 77 -15 1306 -15
1363 1 1334 27 -47 45 -156 45 -279 0 -115 0 -117 28 -138 21 -17 36 -21 65
-17 80 11 103 62 94 213 -16 285 -130 476 -317 535 -83 25 -183 31 -258 14z"/>
</g>
</svg>
